<svg width="214" height="187" viewBox="0 0 214 187" fill="none" xmlns="http://www.w3.org/2000/svg">
<path fill="#9B9B9B" d="M193.333 40.0001H160V20.0001C160 9.16681 150.833 0.000142097 140 0.000142097H73.3333C62.0833 0.000142097 53.3333 9.16681 53.3333 20.0001V40.0001H20C8.75 40.0001 0 49.1668 0 60.0001V166.667C0 177.917 8.75 186.667 20 186.667H193.333C204.167 186.667 213.333 177.917 213.333 166.667V60.0001C213.333 49.1668 204.167 40.0001 193.333 40.0001ZM73.3333 20.0001H140V40.0001H73.3333V20.0001ZM22.5 60.0001H190.833C192.083 60.0001 193.333 61.2501 193.333 62.5001V93.3335H20V62.5001C20 61.2501 20.8333 60.0001 22.5 60.0001ZM190.833 166.667H22.5C20.8333 166.667 20 165.833 20 164.167V113.333H80V123.333C80 129.167 84.1667 133.333 90 133.333H123.333C128.75 133.333 133.333 129.167 133.333 123.333V113.333H193.333V164.167C193.333 165.833 192.083 166.667 190.833 166.667Z"/>
</svg>
