<svg width="163" height="200" viewBox="0 0 163 200" fill="none" xmlns="http://www.w3.org/2000/svg">
<path d="M162.846 12.4938V0H19.096C18.571 0.025 14.6772 -0.0499999 10.0647 2.2125C5.38972 4.2875 0.120969 10.2813 0.339719 18.75C0.339719 18.7875 0.345968 18.825 0.345968 18.8625V187.5C0.345968 200 12.846 200 12.846 200H162.846V25H150.346V12.4938H162.846ZM19.071 25C18.9897 25 18.7585 24.9938 18.1585 24.8875C17.0522 24.7188 15.446 24.1813 14.5397 23.3938C13.6897 22.5563 12.946 21.875 12.846 18.75C13.0522 14.7063 14.0522 14.4625 15.646 13.3938C16.4522 12.9875 17.446 12.7313 18.1647 12.6125C18.9022 12.4813 19.0835 12.5313 19.096 12.4938H137.846V25H19.096C19.0897 25 19.0835 25 19.071 25ZM150.346 187.5H25.346V37.5H150.346V187.5Z" fill="white"/>
</svg>
