<svg width="201" height="176" viewBox="0 0 201 176" fill="#9B9B9B" xmlns="http://www.w3.org/2000/svg">
<path fill="#9B9B9B" d="M201 37.6665V25.1665C201 22.8227 198.656 20.479 196.313 20.479H80.6877C77.9533 20.479 76.0002 22.8227 76.0002 25.5571V37.6665C76.0002 40.4009 77.9533 42.354 80.6877 42.354H196.313C198.656 42.354 201 40.4009 201 37.6665ZM201 100.166V87.6665C201 85.3227 198.656 82.979 196.313 82.979H80.6877C77.9533 82.979 76.0002 85.3227 76.0002 87.6665V100.166C76.0002 102.901 77.9533 104.854 80.6877 104.854H196.313C198.656 104.854 201 102.901 201 100.166ZM201 162.667V150.167C201 147.823 198.656 145.479 196.313 145.479H80.6877C77.9533 145.479 76.0002 147.823 76.0002 150.167V162.667C76.0002 165.401 77.9533 167.354 80.6877 167.354H196.313C198.656 167.354 201 165.401 201 162.667ZM64.2814 13.0571C65.8439 11.4946 65.8439 8.36961 64.2814 6.41648L59.2033 1.72898C57.6408 -0.224146 54.5158 -0.224146 52.5627 1.72898L24.8283 29.4634L13.5002 18.1352C11.9377 16.1821 8.81265 16.1821 6.85953 18.1352L2.17203 22.8227C0.218902 24.7759 0.218902 27.5102 2.17203 29.4634L16.6252 44.3071L21.7033 48.9946C23.2658 50.9477 26.3908 50.9477 28.3439 48.9946L64.2814 13.0571ZM64.2814 75.5571C65.8439 73.604 65.8439 70.8696 64.2814 68.9165L59.2033 64.229C57.6408 62.2759 54.5158 62.2759 52.5627 64.229L24.8283 91.9634L13.5002 80.6352C11.9377 78.6821 8.81265 78.6821 6.85953 80.6352L2.17203 85.3227C0.218902 87.2759 0.218902 90.0102 2.17203 91.9634L16.6252 106.807L21.7033 111.495C23.2658 113.448 26.3908 113.448 28.3439 111.495L64.2814 75.5571ZM26.0002 137.667C15.4533 137.667 7.25015 146.26 7.25015 156.417C7.25015 166.963 15.4533 175.167 26.0002 175.167C36.1564 175.167 44.7502 166.963 44.7502 156.417C44.7502 146.26 36.1564 137.667 26.0002 137.667Z"/>
</svg>
